<svg xmlns="http://www.w3.org/2000/svg" viewBox="0 0 500 500"><g id="freepik--Gears--inject-32"><path d="M389.06,167.12v3.58l1.84.18a9.56,9.56,0,0,0,1.38,3.3l-1.19,1.43,2.54,2.53,1.43-1.18a9.56,9.56,0,0,0,3.3,1.38l.18,1.84h3.58l.17-1.84A9.61,9.61,0,0,0,405.6,177l1.43,1.18,2.53-2.53-1.18-1.43a9.54,9.54,0,0,0,1.37-3.3l1.85-.18v-3.58l-1.85-.17a9.59,9.59,0,0,0-1.37-3.31l1.18-1.43L407,159.68l-1.43,1.18a9.59,9.59,0,0,0-3.31-1.37l-.17-1.85h-3.58l-.18,1.85a9.54,9.54,0,0,0-3.3,1.37l-1.43-1.18-2.54,2.53,1.19,1.43A9.61,9.61,0,0,0,390.9,167Zm11.27-3.06a4.85,4.85,0,1,1-4.85,4.85A4.85,4.85,0,0,1,400.33,164.06Z" style="fill:#D32F2F"></path><path d="M392.5,196.4a8.33,8.33,0,0,0,2.83-1.18l1.22,1,2.17-2.16-1-1.23a8,8,0,0,0,1.18-2.83l1.58-.14V186.8l-1.58-.15a8,8,0,0,0-1.18-2.82l1-1.23-2.17-2.16-1.22,1a8.33,8.33,0,0,0-2.83-1.18l-.15-1.57h-3.06l-.15,1.57a8.25,8.25,0,0,0-2.83,1.18l-1.23-1-2.16,2.16,1,1.23a8.18,8.18,0,0,0-1.17,2.82l-1.58.15v3.07l1.58.14a8.15,8.15,0,0,0,1.17,2.83l-1,1.23,2.16,2.16,1.23-1a8.25,8.25,0,0,0,2.83,1.18l.15,1.57h3.06Zm-5.83-8.07a4.15,4.15,0,1,1,4.15,4.15A4.14,4.14,0,0,1,386.67,188.33Z" style="fill:#D32F2F"></path><path d="M383.66,177.82l1,.85,1.82-1.82-.85-1a6.82,6.82,0,0,0,1-2.37l1.32-.13v-2.57l-1.32-.13a6.82,6.82,0,0,0-1-2.37l.85-1-1.82-1.82-1,.85a6.82,6.82,0,0,0-2.37-1l-.13-1.32h-2.57l-.13,1.32a6.82,6.82,0,0,0-2.37,1l-1-.85-1.82,1.82.85,1a6.82,6.82,0,0,0-1,2.37l-1.32.13v2.57l1.32.13a6.82,6.82,0,0,0,1,2.37l-.85,1,1.82,1.82,1-.85a7,7,0,0,0,2.37,1l.13,1.32h2.57l.13-1.32A7,7,0,0,0,383.66,177.82ZM376.39,172a3.49,3.49,0,1,1,3.49,3.49A3.48,3.48,0,0,1,376.39,172Z" style="fill:#D32F2F"></path><g style="opacity:0.6000000000000001"><path d="M389.06,167.12v3.58l1.84.18a9.56,9.56,0,0,0,1.38,3.3l-1.19,1.43,2.54,2.53,1.43-1.18a9.56,9.56,0,0,0,3.3,1.38l.18,1.84h3.58l.17-1.84A9.61,9.61,0,0,0,405.6,177l1.43,1.18,2.53-2.53-1.18-1.43a9.54,9.54,0,0,0,1.37-3.3l1.85-.18v-3.58l-1.85-.17a9.59,9.59,0,0,0-1.37-3.31l1.18-1.43L407,159.68l-1.43,1.18a9.59,9.59,0,0,0-3.31-1.37l-.17-1.85h-3.58l-.18,1.85a9.54,9.54,0,0,0-3.3,1.37l-1.43-1.18-2.54,2.53,1.19,1.43A9.61,9.61,0,0,0,390.9,167Zm11.27-3.06a4.85,4.85,0,1,1-4.85,4.85A4.85,4.85,0,0,1,400.33,164.06Z" style="fill:#fff"></path><path d="M392.5,196.4a8.33,8.33,0,0,0,2.83-1.18l1.22,1,2.17-2.16-1-1.23a8,8,0,0,0,1.18-2.83l1.58-.14V186.8l-1.58-.15a8,8,0,0,0-1.18-2.82l1-1.23-2.17-2.16-1.22,1a8.33,8.33,0,0,0-2.83-1.18l-.15-1.57h-3.06l-.15,1.57a8.25,8.25,0,0,0-2.83,1.18l-1.23-1-2.16,2.16,1,1.23a8.18,8.18,0,0,0-1.17,2.82l-1.58.15v3.07l1.58.14a8.15,8.15,0,0,0,1.17,2.83l-1,1.23,2.16,2.16,1.23-1a8.25,8.25,0,0,0,2.83,1.18l.15,1.57h3.06Zm-5.83-8.07a4.15,4.15,0,1,1,4.15,4.15A4.14,4.14,0,0,1,386.67,188.33Z" style="fill:#fff"></path><path d="M383.66,177.82l1,.85,1.82-1.82-.85-1a6.82,6.82,0,0,0,1-2.37l1.32-.13v-2.57l-1.32-.13a6.82,6.82,0,0,0-1-2.37l.85-1-1.82-1.82-1,.85a6.82,6.82,0,0,0-2.37-1l-.13-1.32h-2.57l-.13,1.32a6.82,6.82,0,0,0-2.37,1l-1-.85-1.82,1.82.85,1a6.82,6.82,0,0,0-1,2.37l-1.32.13v2.57l1.32.13a6.82,6.82,0,0,0,1,2.37l-.85,1,1.82,1.82,1-.85a7,7,0,0,0,2.37,1l.13,1.32h2.57l.13-1.32A7,7,0,0,0,383.66,177.82ZM376.39,172a3.49,3.49,0,1,1,3.49,3.49A3.48,3.48,0,0,1,376.39,172Z" style="fill:#fff"></path></g><path d="M103.41,254.81l-2.65,2.4,1.1,1.49a9.68,9.68,0,0,0-1.53,3.23l-1.85.09-.18,3.57,1.84.27a9.46,9.46,0,0,0,1.2,3.37l-1.26,1.37,2.41,2.65,1.48-1.1a9.63,9.63,0,0,0,3.24,1.53l.08,1.85,3.58.18.26-1.84a9.56,9.56,0,0,0,3.38-1.19l1.36,1.25,2.66-2.4L117.42,270A9.63,9.63,0,0,0,119,266.8l1.86-.08.18-3.57-1.84-.27a9.58,9.58,0,0,0-1.2-3.38l1.25-1.36-2.4-2.66-1.48,1.11a9.72,9.72,0,0,0-3.24-1.53L112,253.2l-3.58-.17-.27,1.83a9.73,9.73,0,0,0-3.37,1.2Zm9.83,6.31a4.85,4.85,0,1,1-6.85-.35A4.84,4.84,0,0,1,113.24,261.12Z" style="fill:#D32F2F"></path><path d="M91.86,258l.06,1.33,2.57.13.19-1.32a6.76,6.76,0,0,0,2.42-.86l1,.9,1.91-1.72-.79-1.07a6.92,6.92,0,0,0,1.1-2.33l1.33-.06.13-2.57-1.32-.19a7,7,0,0,0-.86-2.42l.9-1-1.73-1.91-1.07.8a6.78,6.78,0,0,0-2.32-1.1l-.06-1.34-2.57-.13-.19,1.32a7,7,0,0,0-2.43.86l-1-.89-1.91,1.72.8,1.07a6.78,6.78,0,0,0-1.1,2.32l-1.33.06-.13,2.57,1.32.19a6.81,6.81,0,0,0,.86,2.43l-.9,1,1.73,1.91,1.06-.8A6.74,6.74,0,0,0,91.86,258Zm-.59-9.27a3.48,3.48,0,1,1-.25,4.92A3.48,3.48,0,0,1,91.27,248.71Z" style="fill:#D32F2F"></path><g style="opacity:0.6000000000000001"><path d="M103.41,254.81l-2.65,2.4,1.1,1.49a9.68,9.68,0,0,0-1.53,3.23l-1.85.09-.18,3.57,1.84.27a9.46,9.46,0,0,0,1.2,3.37l-1.26,1.37,2.41,2.65,1.48-1.1a9.63,9.63,0,0,0,3.24,1.53l.08,1.85,3.58.18.26-1.84a9.56,9.56,0,0,0,3.38-1.19l1.36,1.25,2.66-2.4L117.42,270A9.63,9.63,0,0,0,119,266.8l1.86-.08.18-3.57-1.84-.27a9.58,9.58,0,0,0-1.2-3.38l1.25-1.36-2.4-2.66-1.48,1.11a9.72,9.72,0,0,0-3.24-1.53L112,253.2l-3.58-.17-.27,1.83a9.73,9.73,0,0,0-3.37,1.2Zm9.83,6.31a4.85,4.85,0,1,1-6.85-.35A4.84,4.84,0,0,1,113.24,261.12Z" style="fill:#fff"></path><path d="M91.86,258l.06,1.33,2.57.13.19-1.32a6.76,6.76,0,0,0,2.42-.86l1,.9,1.91-1.72-.79-1.07a6.92,6.92,0,0,0,1.1-2.33l1.33-.06.13-2.57-1.32-.19a7,7,0,0,0-.86-2.42l.9-1-1.73-1.91-1.07.8a6.78,6.78,0,0,0-2.32-1.1l-.06-1.34-2.57-.13-.19,1.32a7,7,0,0,0-2.43.86l-1-.89-1.91,1.72.8,1.07a6.78,6.78,0,0,0-1.1,2.32l-1.33.06-.13,2.57,1.32.19a6.81,6.81,0,0,0,.86,2.43l-.9,1,1.73,1.91,1.06-.8A6.74,6.74,0,0,0,91.86,258Zm-.59-9.27a3.48,3.48,0,1,1-.25,4.92A3.48,3.48,0,0,1,91.27,248.71Z" style="fill:#fff"></path></g><path d="M250.36,113.47l.06,1.34,2.57.13.19-1.32a7,7,0,0,0,2.43-.86l1,.89,1.91-1.72-.8-1.07a6.78,6.78,0,0,0,1.1-2.32l1.33-.06.13-2.57-1.32-.19a6.81,6.81,0,0,0-.86-2.43l.9-1-1.73-1.91-1.06.8a6.74,6.74,0,0,0-2.33-1.1l-.06-1.33-2.57-.13L251,100a6.76,6.76,0,0,0-2.42.86l-1-.9-1.91,1.72.79,1.07a6.92,6.92,0,0,0-1.1,2.33l-1.33.06-.13,2.56,1.32.2a7,7,0,0,0,.86,2.42l-.89,1,1.72,1.91,1.07-.8A6.78,6.78,0,0,0,250.36,113.47Zm-.58-9.27a3.48,3.48,0,1,1-.25,4.92A3.48,3.48,0,0,1,249.78,104.2Z" style="fill:#D32F2F"></path><path d="M250.36,113.47l.06,1.34,2.57.13.19-1.32a7,7,0,0,0,2.43-.86l1,.89,1.91-1.72-.8-1.07a6.78,6.78,0,0,0,1.1-2.32l1.33-.06.13-2.57-1.32-.19a6.81,6.81,0,0,0-.86-2.43l.9-1-1.73-1.91-1.06.8a6.74,6.74,0,0,0-2.33-1.1l-.06-1.33-2.57-.13L251,100a6.76,6.76,0,0,0-2.42.86l-1-.9-1.91,1.72.79,1.07a6.92,6.92,0,0,0-1.1,2.33l-1.33.06-.13,2.56,1.32.2a7,7,0,0,0,.86,2.42l-.89,1,1.72,1.91,1.07-.8A6.78,6.78,0,0,0,250.36,113.47Zm-.58-9.27a3.48,3.48,0,1,1-.25,4.92A3.48,3.48,0,0,1,249.78,104.2Z" style="fill:#fff;opacity:0.6000000000000001"></path></g><g id="freepik--character-2--inject-32"><path d="M291.71,201.9c-3,.48-9.67,22.42-12.36,25.29-1.42,1.5-16.84-2.87-16.84-2.87L260.69,230s16.87,7,21.46,5.27c7.7-2.84,11.5-18.67,11.5-18.67Z" style="fill:#263238"></path><path d="M293.65,216.59a52,52,0,0,1-2.29,6.93c-1.35,3.33-3.32,7.12-5.89,9.58a9.79,9.79,0,0,1-3.32,2.16C277.57,237,260.69,230,260.69,230l1.82-5.67s15.42,4.37,16.84,2.87c2.69-2.87,9.39-24.81,12.35-25.29Z" style="fill:#fff;opacity:0.2"></path><path d="M261.87,224.41,256,219.14l-3,7s6.28,4.07,7.92,2.39Z" style="fill:#eec1bb"></path><polygon points="249.02 219.93 248.2 225.31 253.04 226.1 256.02 219.14 249.02 219.93" style="fill:#eec1bb"></polygon><polygon points="264.52 224.35 262.33 231.31 259.52 230.07 261.51 223.53 264.52 224.35" style="fill:#D32F2F"></polygon><polygon points="264.52 224.35 262.33 231.31 259.52 230.07 261.51 223.53 264.52 224.35" style="fill:#fff;opacity:0.7000000000000001"></polygon><path d="M291.36,223.52c-1.35,3.33-3.32,7.12-5.89,9.58-.63-9.26,5.18-16.61,5.18-16.61A23,23,0,0,1,291.36,223.52Z" style="opacity:0.2"></path><path d="M297.64,181.33a31.3,31.3,0,0,1,0,8.49s17.11,2.38,21.27-.79,6-22-3.27-23.78S295.47,169.77,297.64,181.33Z" style="fill:#263238"></path><path d="M284.14,416.8h-1.43l-.4-1.77-4.74,2.14h-12s-1.91-1.92,3.81-3.45a4.31,4.31,0,0,0,.81-.31c3.05-1.43,7.39-6.26,7.39-6.26h6.59a8.37,8.37,0,0,1,.54,1C285.42,409.55,286.66,412.6,284.14,416.8Z" style="fill:#263238"></path><path d="M284.7,408.1v0c-.87-1-4.83,3.29-7.73,4.74-2.59,1.29-5.5,1.86-6.79.55,3.05-1.43,7.85-7.67,7.85-7.67h5.3S284.39,407.48,284.7,408.1Z" style="fill:#ffc2bc"></path><polyline points="277.57 407.15 280.59 381.3 290.07 384.1 283.48 407.37" style="fill:#ffc2bc"></polyline><path d="M318.61,248.8l-25.9-1.21s-6.92,44.58-7.55,73.06c-2,19.12-4.43,51.76-6.75,71.74a13.16,13.16,0,0,0,4.92,1.84,13.94,13.94,0,0,0,4.36.21c6-17.15,13-45.59,12.55-73.08C318.52,276.93,318.61,248.8,318.61,248.8Z" style="fill:#263238"></path><path d="M318.61,248.8s0,15.79-7.75,42.38c-2,7-4.6,14.75-7.82,23.16-.89,2.29-1.81,4.63-2.8,7,.49,27.49-6.57,55.93-12.56,73.08a13.82,13.82,0,0,1-4.34-.21,13.27,13.27,0,0,1-4.94-1.84c2.34-20,4.73-52.62,6.75-71.74.65-28.48,7.57-73.06,7.57-73.06Z" style="fill:#fff;opacity:0.4"></path><path d="M310.86,291.18c-2,7-4.6,14.75-7.82,23.16-2.21-22.71,3-35.54,3-35.54C308.42,281.71,309.94,286.13,310.86,291.18Z" style="opacity:0.2"></path><path d="M321.16,416.8h-1.43l-.4-1.77-4.74,2.14h-12s-1.91-1.92,3.81-3.45a4.31,4.31,0,0,0,.81-.31c3.05-1.43,7.39-6.26,7.39-6.26h6.59a8.37,8.37,0,0,1,.54,1C322.44,409.55,323.69,412.6,321.16,416.8Z" style="fill:#263238"></path><path d="M321.72,408.1v0c-.87-1-4.83,3.29-7.73,4.74-2.59,1.29-5.5,1.86-6.79.55,3.05-1.43,7.85-7.67,7.85-7.67h5.3S321.41,407.48,321.72,408.1Z" style="fill:#ffc2bc"></path><polygon points="314.59 407.15 314.46 379.48 324.58 379.93 320.19 407.17 314.59 407.15" style="fill:#ffc2bc"></polygon><path d="M313.55,394.87a27.24,27.24,0,0,0,4.87,1.14,10.89,10.89,0,0,0,4.08-.16c4.62-19.48,9.34-50.86,4-69.75,10.1-61.07-3.29-77.39-3.29-77.39l-22.73-2.47s7.32,51.67,9.8,76.93C312.44,344.87,314.33,370.19,313.55,394.87Z" style="fill:#263238"></path><path d="M313.55,394.87a27.24,27.24,0,0,0,4.87,1.14,10.89,10.89,0,0,0,4.08-.16c4.62-19.48,9.34-50.86,4-69.75,10.1-61.07-3.29-77.39-3.29-77.39l-22.73-2.47s7.32,51.67,9.8,76.93C312.44,344.87,314.33,370.19,313.55,394.87Z" style="fill:#fff;opacity:0.4"></path><path d="M318.82,199.3s-17.68,8.76-16.17.75c0,0-6.52-.06-10.81,2.56,0,0-2.54,10.65,0,39.28L290,255.74l10.46,3.16,3.45-10,4.18,10.57,18.18-5.68-3.67-10.67s1.85-24.53,7.39-35.74C330,207.34,329.14,199.18,318.82,199.3Z" style="fill:#D32F2F"></path><path d="M318.82,199.3s-17.68,8.76-16.17.75c0,0-6.52-.06-10.81,2.56,0,0-2.32,11.5,0,39.28L290,255.74l10.46,3.16,3.45-10,4.18,10.57,18.18-5.68-3.67-10.67s1.85-24.53,7.39-35.74C330,207.34,329.14,199.18,318.82,199.3Z" style="fill:#fff;opacity:0.7000000000000001"></path><path d="M317.72,184.07c-1.22,4.51-2.72,12.79.21,15.8,0,0,4,3.21-7.91,2.85-1,2.48-5,7.79-5,7.79s-1.82-5-1-6.84c-7.67-.66-.18-3.8-.18-3.8,5.13-1.2,5.28-4.94,4.66-8.45Z" style="fill:#eec1bb"></path><path d="M314,187.07l-5.42,4.35a13.21,13.21,0,0,1,.24,2.49c1.95-.28,4.75-2.39,5.1-4.4A6.66,6.66,0,0,0,314,187.07Z" style="opacity:0.2"></path><path d="M321.57,175c-1.37,7.29-1.79,10.4-5.95,13.9-6.26,5.26-14.86,2.48-15.68-5-.74-6.69,1.62-17.49,9.14-19.9A9.5,9.5,0,0,1,321.57,175Z" style="fill:#eec1bb"></path><path d="M315.3,169.73c4,5.2-4.24,11.17,4,10.82s4.91-12,0-14.67S315.3,169.73,315.3,169.73Z" style="fill:#263238"></path><path d="M310,176.22c-.09.61-.48,1.09-.87,1.06s-.65-.55-.56-1.17.48-1.09.88-1.06S310.11,175.6,310,176.22Z" style="fill:#263238"></path><path d="M302.57,175.78c-.08.61-.48,1.09-.87,1.06s-.65-.55-.56-1.17.48-1.09.88-1.06S302.66,175.16,302.57,175.78Z" style="fill:#263238"></path><path d="M302.19,174.65l-1.39-.53S301.38,175.33,302.19,174.65Z" style="fill:#263238"></path><path d="M304.5,176.94a18.46,18.46,0,0,1-2.72,3.78,2.48,2.48,0,0,0,2.1.57Z" style="fill:#d4827d"></path><path d="M307,183.83a5.87,5.87,0,0,1-1,0,.15.15,0,0,1-.15-.19.19.19,0,0,1,.2-.17,5.18,5.18,0,0,0,4.18-1.62.18.18,0,0,1,.25,0,.19.19,0,0,1,0,.26A5.48,5.48,0,0,1,307,183.83Z" style="fill:#263238"></path><path d="M312.1,172.9a.32.32,0,0,1-.25-.11,2.62,2.62,0,0,0-2.36-.9.33.33,0,0,1-.4-.29.39.39,0,0,1,.31-.43,3.36,3.36,0,0,1,3,1.11.38.38,0,0,1,0,.52A.39.39,0,0,1,312.1,172.9Z" style="fill:#263238"></path><path d="M300.9,172.23a.33.33,0,0,1-.25-.08.36.36,0,0,1,0-.51,3.8,3.8,0,0,1,3.08-1.37.33.33,0,0,1,.29.4.39.39,0,0,1-.42.32,3,3,0,0,0-2.43,1.11A.36.36,0,0,1,300.9,172.23Z" style="fill:#263238"></path><path d="M309.64,175.09l-1.39-.53S308.83,175.77,309.64,175.09Z" style="fill:#263238"></path><path d="M312.48,165.69s1.43,8.6,7.14,10,1.08-8.83,1.08-8.83-1.2-4.66-8.91-4.66-16.62,7.83-14.15,19.1a12.44,12.44,0,0,1,1.29-6.72C300.64,171.64,302.4,174.2,312.48,165.69Z" style="fill:#263238"></path><path d="M317.67,163.52c8.16,3.26,11.13,8.6,10.43,14.53s-8,12.22-9.19,12.44l-3.67.52s5.64-7.84,4.55-10.5-2.17-2.92-2.17-2.92Z" style="fill:#263238"></path><path d="M322.28,182a5.07,5.07,0,0,1-3.1,2.72c-1.69.45-2.43-1.5-1.87-3.44.51-1.75,2-4.09,3.67-3.67S323.14,180.32,322.28,182Z" style="fill:#eec1bb"></path><path d="M321.76,199.63c-5.52,5.13-8.49,32.17-7.7,40.9s7.7,32.1,7.7,32.1l10.89-.89s-2.63-16.21-9.36-29.14c0,0,4.29-32.13,8.24-40.12,0,0-3.75-1.49-4.91-1.83S321.76,199.63,321.76,199.63Z" style="fill:#263238"></path><path d="M332.65,271.74l-10.89.89s-2.32-7.81-4.4-16.09c-.88-3.45-1.71-7-2.33-10.05a55.24,55.24,0,0,1-1-6c-.09-1-.14-2.23-.14-3.64.05-11,2.93-32.71,7.83-37.26l1.87.35c1.07.22,2.34.48,3,.67,1.16.34,4.91,1.83,4.91,1.83a31.05,31.05,0,0,0-1.62,4.4c-.14.53-.31,1.09-.45,1.67-1.74,6.49-3.38,15.79-4.55,23-1,6.29-1.62,11-1.62,11q1.06,2.06,2,4.19A117.75,117.75,0,0,1,332.65,271.74Z" style="fill:#fff;opacity:0.2"></path><path d="M321.76,199.63s4.27,8.79,3.28,17.79l-6.43-5,3.66,4.75-8.21,15S314.72,205.28,321.76,199.63Z" style="fill:#263238"></path><path d="M300.54,200.09s-6.66,11.39-5.47,40.67l-4,29.67h-4.35l4.84-29.67s-5.17-22.42.11-38.86A25.79,25.79,0,0,1,300.54,200.09Z" style="fill:#263238"></path><path d="M300.54,200.09s-6.66,11.39-5.47,40.67l-4,29.67h-4.35l4.84-29.67s-5.17-22.42.11-38.86A25.79,25.79,0,0,1,300.54,200.09Z" style="fill:#fff;opacity:0.2"></path><path d="M301.49,200.09s-1-.56-3.32.37-7.85,13.13-7.85,13.13l4.22-2.44-2.37,2.44L295,228.22S298.22,201.88,301.49,200.09Z" style="fill:#263238"></path><path d="M307.53,198.05s-3.93,2.74-3.46,5.62l-6.71,1.65S301.33,198.53,307.53,198.05Z" style="fill:#D32F2F"></path><path d="M319.51,206.52l-9.4-3.05s5-4,6.52-6.18l3.11,2.33h0C319.82,199.8,320.74,202.08,319.51,206.52Z" style="fill:#D32F2F"></path><path d="M307.53,198.05s-3.93,2.74-3.46,5.62l-6.71,1.65S301.33,198.53,307.53,198.05Z" style="fill:#fff;opacity:0.6000000000000001"></path><path d="M319.51,206.52l-9.4-3.05s5-4,6.52-6.18l3.11,2.33h0C319.82,199.8,320.74,202.08,319.51,206.52Z" style="fill:#fff;opacity:0.6000000000000001"></path><path d="M325.29,246.79h-1.37c-2.7,0-5.88-.14-8.89-.31-5.81-.33-11-.79-11-.79l.42-7.25,5.83.08.29-.54a24.22,24.22,0,0,0,3.38-1.1,102.45,102.45,0,0,0,9.92-4.72l1.07-.59c-1,6.29-1.62,11-1.62,11Q324.37,244.66,325.29,246.79Z" style="opacity:0.2"></path><path d="M331.53,202.48c3.5,3.08,9.72,30.93,7.7,34.47s-25.65,7.56-25.65,7.56l-2.27-6s18.71-5.16,18.71-7.2S326.75,221,326.75,221s-.76-9.51,1.88-14.17A25.6,25.6,0,0,1,331.53,202.48Z" style="fill:#263238"></path><path d="M331.53,202.48c3.5,3.08,9.72,30.93,7.7,34.47s-25.65,7.56-25.65,7.56l-2.27-6s18.71-5.16,18.71-7.2S326.75,221,326.75,221s-.76-9.51,1.88-14.17A25.6,25.6,0,0,1,331.53,202.48Z" style="fill:#fff;opacity:0.2"></path><path d="M311.82,239.05l-7.81-1,1.53,7.41s7.48-.24,7.86-2.55Z" style="fill:#eec1bb"></path><polygon points="298.71 242.71 301.11 247.59 305.54 245.47 304.01 238.06 298.71 242.71" style="fill:#eec1bb"></polygon><polygon points="313.97 237.48 316.14 244.46 313.12 245.04 311.03 238.53 313.97 237.48" style="fill:#D32F2F"></polygon><polygon points="313.97 237.48 316.14 244.46 313.12 245.04 311.03 238.53 313.97 237.48" style="fill:#fff;opacity:0.7000000000000001"></polygon></g><g id="freepik--character-1--inject-32"><path d="M233.52,252.86l4.72,9-9.69,1.48s-3.07-9.19-.44-10.7Z" style="fill:#ffb573"></path><polygon points="234.97 270.43 227.97 269.7 228.55 263.38 238.24 261.9 234.97 270.43" style="fill:#ffb573"></polygon><polygon points="232.31 248.38 234.46 253.94 226.64 255.88 224.4 250.36 232.31 248.38" style="fill:#D32F2F"></polygon><polygon points="232.31 248.38 234.46 253.94 226.64 255.88 224.4 250.36 232.31 248.38" style="fill:#fff;opacity:0.7000000000000001"></polygon><path d="M213,181.51c-2.65,2.62-.15,34.91-.07,38.76s11.38,32.41,11.38,32.41l9.13-2.8-9.33-29.78c-1.37-4.34-1.1-15.46-1.2-20.18-.08-3.67-.28-9.43-2.87-12.81A23.57,23.57,0,0,0,213,181.51Z" style="fill:#263238"></path><path d="M213,181.51c-2.65,2.62-.15,34.91-.07,38.76s11.38,32.41,11.38,32.41l9.13-2.8-9.33-29.78c-1.37-4.34-1.1-15.46-1.2-20.18-.08-3.67-.28-9.43-2.87-12.81A23.57,23.57,0,0,0,213,181.51Z" style="opacity:0.30000000000000004"></path><path d="M236.75,219.1l9.86-2.61-.69,9.78s-9.64,1-10.54-1.93Z" style="fill:#ffb573"></path><polygon points="254.2 221.55 251.96 228.22 245.92 226.27 246.61 216.49 254.2 221.55" style="fill:#ffb573"></polygon><path d="M212.39,192.83l-.92-9.63c-1.6-.27-2.44-3.21-4.24-3.38a153.38,153.38,0,0,0-17.16,0c-1.71.09-3.43.24-5,.42l-5.11,20.5c.66,5.63,1,11.09,1.25,16.18.62,14.94-.21,17.67.07,21.28h40.4c-1.32-23.72-2.55-37.71-3.36-45.37Z" style="fill:#D32F2F"></path><path d="M212.39,192.83l-.92-9.63c-1.6-.27-2.44-3.21-4.24-3.38a153.38,153.38,0,0,0-17.16,0c-1.07.06-2.14.14-3.2.23l-6.69,23.06c.49,4.79.81,9.44,1,13.81.62,14.94-.21,17.67.07,21.28h40.4c-1.13-23.55-2.4-37.63-3.28-45.37Z" style="fill:#fff;opacity:0.7000000000000001"></path><path d="M205.81,182.35a30.15,30.15,0,0,0-2.5,3l-.5,4.65s7,20.91,7.59,30.63l-2.58,2.47-4.51-3.93a262.55,262.55,0,0,0-2-29.12l-1.7-4.13s-4.39-1.9-6.23-4S205.81,182.35,205.81,182.35Z" style="fill:#D32F2F"></path><path d="M190.43,162.49l4.6,3.81,6.25,5.19a20.69,20.69,0,0,0-.39,2.53c-.34,3.39.79,4.37,4.27,5.67a6.64,6.64,0,0,1-2.1,4.56c0,.55-1.5,1.44-1.5,1.44a10.2,10.2,0,0,0-1.28-1.2c-9.61-.17-10.88-4.62-10.88-4.62C193.14,176.18,191.71,168,190.43,162.49Z" style="fill:#ffb573"></path><path d="M201.28,171.49a20.69,20.69,0,0,0-.39,2.53c-2.34-.47-5.45-3-5.78-5.34a11,11,0,0,1-.08-2.38Z" style="opacity:0.2"></path><path d="M209.15,142.33s4.1,9.75-.3,15-9.16-13.62-9.16-13.62Z" style="fill:#263238"></path><path d="M195.26,169.35a9.49,9.49,0,0,0,11.47.9,10.58,10.58,0,0,0,4.65-6.24,10.26,10.26,0,0,0,.24-1.1c1.08-6.87-.81-17.92-8.39-20.33A10.3,10.3,0,0,0,189.88,154C190.91,161.4,191.16,165.82,195.26,169.35Z" style="fill:#ffb573"></path><path d="M201.43,155.15c0,.61.4,1.08.81,1s.68-.56.63-1.17-.41-1.08-.81-1.05S201.38,154.53,201.43,155.15Z" style="fill:#263238"></path><path d="M208.33,154.61c0,.61.41,1.08.81,1s.68-.55.63-1.16-.41-1.08-.81-1.05S208.28,154,208.33,154.61Z" style="fill:#263238"></path><path d="M206.16,155.08a21.69,21.69,0,0,0,3.32,5,3.52,3.52,0,0,1-2.89.78Z" style="fill:#ed893e"></path><path d="M210.63,151.58a.39.39,0,0,1-.38,0,2.91,2.91,0,0,0-2.58-.28.36.36,0,0,1-.48-.17.35.35,0,0,1,.17-.47h0a3.52,3.52,0,0,1,3.26.31.36.36,0,0,1,.13.49h0A.74.74,0,0,1,210.63,151.58Z" style="fill:#263238"></path><path d="M199.85,152.51a.29.29,0,0,1-.2,0,.36.36,0,0,1,0-.51h0a3.53,3.53,0,0,1,3.1-1.09.35.35,0,0,1,.28.42h0a.38.38,0,0,1-.43.28h0a2.87,2.87,0,0,0-2.43.9A.37.37,0,0,1,199.85,152.51Z" style="fill:#263238"></path><path d="M194.65,144.16l.83,1.33c-2.36,1.12-1.51,3.92-.85,5.15,1.41,2.63.38,7.12-1.52,9.1,0,0-.22-1.19-1.2-.78s0,5.57,0,5.57-.86,1.46-3.37-4.87c-2.32-5.87-3.16-10.89-2.21-13.39Z" style="fill:#263238"></path><path d="M187.09,160.35a7.21,7.21,0,0,0,4.37,3.29c2.44.61,3.58-1.59,2.86-3.86-.67-2-2.73-4.81-5.15-4.39S185.93,158.33,187.09,160.35Z" style="fill:#ffb573"></path><path d="M206.26,162.35a23.35,23.35,0,0,0-1.53,2.88l-.56-.15c-2.51-.68-3.44-1.83-3.72-2.9a3.53,3.53,0,0,1,.32-2.44,12.27,12.27,0,0,0,4.64,2.37C205.93,162.27,206.26,162.35,206.26,162.35Z" style="fill:#263238"></path><path d="M205.41,162.11l-.47.83c-2.37-.65-3.94-1.43-4.49-2.34a3.33,3.33,0,0,1,.32-.86A12.27,12.27,0,0,0,205.41,162.11Z" style="fill:#fff"></path><path d="M204.17,165.08c-2.51-.68-3.44-1.83-3.72-2.9a8.55,8.55,0,0,1,2.63,1.32A3.07,3.07,0,0,1,204.17,165.08Z" style="fill:#de5753"></path><path d="M207.82,145.72a8.59,8.59,0,0,0,2-6.34s-14.39-2.48-20.95,0-2.49,13.14-2.49,13.14,6.75-5.57,9.14-7,9.81,1.17,9.81,1.17Z" style="fill:#263238"></path><path d="M191.06,175.74s1.83,4.85,8.88,8.28l1.9,1.74-3.16-.8-3.2,4-8.91-8.92S189.5,175.8,191.06,175.74Z" style="fill:#D32F2F"></path><path d="M201.84,185.76l.51-2.78a10.5,10.5,0,0,0-.7-5.26s-.44-.1-.69-1.29l1.19.3s6.3,2.48,7.21,10.65l-5-3.46Z" style="fill:#D32F2F"></path><path d="M201.84,185.76l.51-2.78a10.5,10.5,0,0,0-.7-5.26s-.44-.1-.69-1.29l1.19.3s6.3,2.48,7.21,10.65l-5-3.46Z" style="fill:#fff;opacity:0.6000000000000001"></path><path d="M191.06,175.74s1.83,4.85,8.88,8.28l1.9,1.74-3.16-.8-3.2,4-8.91-8.92S189.5,175.8,191.06,175.74Z" style="fill:#fff;opacity:0.6000000000000001"></path><polygon points="218.05 409.37 226.54 410.26 226.97 405.34 228.14 391.94 219.64 391.04 218.35 405.84 218.05 409.37" style="fill:#9f5b53"></polygon><polygon points="175.64 408.29 183.87 408.29 183.94 406.43 183.96 406.2 184.37 394.25 184.38 394.01 184.55 389.44 176.31 389.44 175.64 408.29" style="fill:#9f5b53"></polygon><polygon points="219.64 391.04 218.35 405.84 226.97 405.34 228.14 391.94 219.64 391.04" style="isolation:isolate;opacity:0.2"></polygon><polygon points="175.69 407.25 175.7 407.25 183.94 406.2 183.96 406.2 184.38 394.67 184.37 394.67 176.12 395.33 175.7 406.88 175.69 407.25" style="isolation:isolate;opacity:0.2"></polygon><path d="M185,407.8H175a.71.71,0,0,0-.7.56l-1.63,7.34a1.22,1.22,0,0,0,.94,1.44.82.82,0,0,0,.27,0c3.23-.05,5.59-.25,9.66-.25,2.5,0,10,.26,13.51.26s3.91-3.41,2.5-3.73c-6.35-1.38-11.13-3.3-13.16-5.12A2,2,0,0,0,185,407.8Z" style="fill:#263238"></path><path d="M227.45,407.54h-10a.71.71,0,0,0-.7.56l-1.63,7.34a1.19,1.19,0,0,0,1.21,1.46c3.24,0,5.59-.25,9.66-.25,2.5,0,10.06.26,13.51.26s3.91-3.41,2.5-3.73c-6.35-1.38-11.13-3.3-13.16-5.12A2,2,0,0,0,227.45,407.54Z" style="fill:#263238"></path><path d="M174.58,405.15h11.93s9.6-36.39,13.4-62.58c.6-4.07,1.23-9.4,1.87-15.62,1-10,2.05-22.08,3-33.68,2.85,7.66,5,18.62,6.7,31a592.33,592.33,0,0,1,5.37,79.79h12.08c7.76-59.24.46-119.45-4.6-150.71-1-6.34-2-11.48-2.67-15.19H181.25c0,.84.27,7,.63,15.93.81,20.4,2,55.47.75,75.91C181.58,347.8,174.58,405.15,174.58,405.15Z" style="fill:#263238"></path><path d="M231.62,409a9.49,9.49,0,0,1-2,.37.18.18,0,0,1-.16-.28c.18-.24,1.76-2.29,2.75-2.23a.66.66,0,0,1,.55.35,1,1,0,0,1,.08,1A2,2,0,0,1,231.62,409ZM230,409c1.37-.16,2.3-.5,2.53-.95a.62.62,0,0,0-.08-.63.3.3,0,0,0-.26-.18C231.66,407.16,230.66,408.15,230,409Z" style="fill:#D32F2F"></path><path d="M229.66,409.34h-.09a.16.16,0,0,1-.13-.11c0-.09-.87-2.1-.37-3a.91.91,0,0,1,.64-.47.7.7,0,0,1,.77.31c.42.73-.17,2.58-.74,3.24Zm0-3.23a.5.5,0,0,0-.31.26,3.92,3.92,0,0,0,.27,2.44,3.55,3.55,0,0,0,.52-2.58c0-.09-.14-.19-.4-.14Z" style="fill:#D32F2F"></path><path d="M189.18,409a9.29,9.29,0,0,1-2,.37.19.19,0,0,1-.17-.09.17.17,0,0,1,0-.19c.18-.24,1.76-2.29,2.75-2.23a.63.63,0,0,1,.54.35,1,1,0,0,1,.09,1A2.07,2.07,0,0,1,189.18,409Zm-1.61,0c1.36-.16,2.3-.5,2.53-.95a.62.62,0,0,0-.08-.63.31.31,0,0,0-.26-.18C189.23,407.16,188.23,408.15,187.57,409Z" style="fill:#D32F2F"></path><path d="M187.22,409.34h-.08a.16.16,0,0,1-.13-.11c0-.09-.87-2.1-.37-3a.9.9,0,0,1,.63-.47.69.69,0,0,1,.77.31c.42.73-.16,2.58-.74,3.24Zm0-3.23a.5.5,0,0,0-.31.26,3.92,3.92,0,0,0,.27,2.44,3.6,3.6,0,0,0,.52-2.58c-.05-.09-.15-.19-.4-.14Z" style="fill:#D32F2F"></path><path d="M204.76,293.26c2.85,7.67,5,18.62,6.7,31.05,4.06-16.62-5.65-47.36-5.65-47.36Z" style="opacity:0.30000000000000004"></path><path d="M222.75,245.39l-.64-10.18h-39.9s-1.25,2.39-1.12,9.27Z" style="fill:#263238"></path><rect x="218.48" y="236.49" width="4.27" height="2.95"></rect><rect x="199.25" y="236.49" width="18.03" height="2.95"></rect><rect x="182.42" y="236.49" width="15.62" height="2.95"></rect><path d="M181.25,238.2c0,.84.27,7,.63,15.93,7.71,2,24.8,1.33,24.8,1.33l1.58-1.21.59,1.21,15.46-2.07c-1-6.34-2-11.48-2.67-15.19Z" style="opacity:0.30000000000000004"></path><rect x="206.68" y="236.29" width="4.88" height="3.35" rx="0.55" transform="translate(418.24 475.94) rotate(180)" style="fill:#fff"></rect><path d="M208.36,244.31a47.28,47.28,0,0,1-1.69,8.72l-27.29-.8s.54-21.49.77-30.23a157.55,157.55,0,0,0-1.27-16.82c-.48-4.36-1-8.84-1.54-12.71a6.25,6.25,0,0,1-.08-.86,12,12,0,0,1,9.32-12.38l20,31,0,.08s.15.74.34,2.05c.42,2.68,1.12,7.73,1.53,13.7A105.52,105.52,0,0,1,208.36,244.31Z" style="fill:#263238"></path><path d="M188,178.25l-2.51,1.05,1.12,7.2,4.65,4-1.46,5.1,16.92,14.7S193.25,189.81,188,178.25Z" style="fill:#263238"></path><path d="M188,178.25l-2.51,1.05,1.12,7.2,4.65,4-1.46,5.1,16.92,14.7S193.25,189.81,188,178.25Z" style="fill:#fff;opacity:0.1"></path><path d="M225.13,251.05l-16,1.09-.75-7.83h0l-1.78-18.76-1.16-12.15c.18-.45.36-.89.51-1.33.25-.63.49-1.24.7-1.85,7.88-22-.64-30.63-.64-30.63a17,17,0,0,1,11.29,5.24c2.94,6.49,5.31,17.49,5.56,28.94.14,6.34.06,11.92,0,15.06,0,1.71-.07,2.7-.07,2.7Z" style="fill:#263238"></path><path d="M206,179.58s6.34,3.11,8.83,8.76l-1.43,1.88,3.1,5.24-11.08,17.93S210.18,186.19,206,179.58Z" style="fill:#263238"></path><path d="M206,179.58s6.34,3.11,8.83,8.76l-1.43,1.88,3.1,5.24-11.08,17.93S210.18,186.19,206,179.58Z" style="fill:#fff;opacity:0.1"></path><path d="M222.83,228.82c-3.57-.54-9-1.46-14.29-2.78-.66-.15-1.31-.32-2-.5a52.92,52.92,0,0,1-8.45-2.92c-6.77-3.19-15-12.35-19.25-17.44-.48-4.36-1-8.84-1.54-12.71a6.25,6.25,0,0,1-.08-.86h10.46s15.41,18.71,18.21,20.45l.24.11a7.44,7.44,0,0,0,.84.17c2.82.44,10.78,1.06,15.83,1.42C223,220.1,222.9,225.68,222.83,228.82Z" style="opacity:0.30000000000000004"></path><polygon points="232.3 218.14 238.24 218.71 236.46 226.57 230.52 226.1 232.3 218.14" style="fill:#D32F2F"></polygon><polygon points="232.3 218.14 238.24 218.71 236.46 226.57 230.52 226.1 232.3 218.14" style="fill:#fff;opacity:0.7000000000000001"></polygon><path d="M177.78,187.38c-4.75,14.3,15.33,29.86,20.36,34S233,227.2,233,227.2l1.57-9.4s-27.19-3.1-29.19-4.41-15-17.59-18.35-22.74S177.78,187.38,177.78,187.38Z" style="fill:#263238"></path></g></svg>
